<svg id="logo-uol-play" xmlns="http://www.w3.org/2000/svg" width="210.321" height="39.396" viewBox="0 0 210.321 39.396">
  <g id="Layer_1" data-name="Layer 1" transform="translate(0 0)">
    <circle id="Ellipse_9655" data-name="Ellipse 9655" cx="19.697" cy="19.697" r="19.697" fill="#ff8000"/>
    <path id="Path_102677" data-name="Path 102677" d="M21.355,1.64A16.455,16.455,0,0,0,4.9,18.1,16.71,16.71,0,0,0,5.107,20.7c2.132-5.561,7.94-9.551,14.784-9.551a16.041,16.041,0,0,1,13.441,6.938h.047a6.517,6.517,0,0,1,4.338,1.524c.047-.5.074-1,.074-1.517A16.462,16.462,0,0,0,21.355,1.64" transform="translate(-1.625 -0.544)" fill="#ffce00"/>
    <path id="Path_102678" data-name="Path 102678" d="M37.389,27.773a6.517,6.517,0,0,0-4.364-1.524h-.047c-4.846.033-9.939,4.237-11.362,9.424a7.929,7.929,0,0,0,.916,6.971c-.495.047-.989.074-1.5.074A16.462,16.462,0,0,1,4.779,28.862a13.04,13.04,0,0,0-.869,4.679,13.581,13.581,0,0,0,4.8,10.246A19.664,19.664,0,0,0,35.8,41.381a20.051,20.051,0,0,0,3.088-4.752c.12-.314.221-.668.314-.956.929-3.342.154-6.223-1.785-7.9" transform="translate(-1.297 -8.704)" fill="#ff0024"/>
    <path id="Path_102679" data-name="Path 102679" d="M131.926,25.727c-3.061,0-4.471-1.571-4.471-4.639V2.22h-9.4V16.256a13.428,13.428,0,0,0-24.349,0v-7.5h-9.27v13.18c0,2.379-1.25,4.01-3.342,4.01s-3.342-1.611-3.342-4.01V8.757h-9.4v13.3c0,8.141,5,13.261,12.739,13.261,6.216,0,10.647-3.449,12.1-9.03a13.428,13.428,0,0,0,25.3.207c1.384,5.975,5.908,8.622,11.977,8.622h2.379V25.76Zm-26.067.2a4,4,0,1,1,.027,0Z" transform="translate(-22.667 -0.736)" fill="#fff"/>
    <path id="Path_102680" data-name="Path 102680" d="M197.553,11.72h-7.94a4.8,4.8,0,0,0-5.053,4.745V34.632a3.9,3.9,0,0,0,3.923,3.623h.368a3.89,3.89,0,0,0,3.923-3.623c0-2.887-.461-6.283,3.623-6.283,0,0,2.172,0,2.166-.053a8.01,8.01,0,0,0,8.241-8.268C206.77,15.122,202.626,11.72,197.553,11.72Z" transform="translate(-61.205 -3.887)" fill="#ff8000"/>
    <path id="Path_102681" data-name="Path 102681" d="M231.671,31.367h-.882a1.952,1.952,0,0,1-1.952-1.952V15.8a4.1,4.1,0,0,0-4.1-4.11,3.733,3.733,0,0,0-3.8,4.11V34.288a4.027,4.027,0,0,0,3.97,4.284h6.5a3.743,3.743,0,0,0,3.736-3.743h0a3.469,3.469,0,0,0-3.462-3.462Z" transform="translate(-73.266 -3.877)" fill="#ff8000"/>
    <path id="Path_102682" data-name="Path 102682" d="M277.126,39.967c-5.093-5.213-9.7-2.767-11.63-1.277a7.809,7.809,0,0,0-.942.829l-.033.033,6.216,6.216a3.736,3.736,0,0,0,2.673,1.1,4.465,4.465,0,0,0,3.756-6.878" transform="translate(-87.722 -12.203)" fill="#ffce00"/>
    <path id="Path_102683" data-name="Path 102683" d="M259.255,30.421c1.932-1.49,6.537-3.937,11.63,1.277,0,0-6.4-13.468-8.849-17.792a4.218,4.218,0,0,0-3.489-2.045h-.267a4.907,4.907,0,0,0-.541.033l-.267.04a4.929,4.929,0,0,0-.521.127,4.1,4.1,0,0,0-2.426,1.851c-2.453,4.324-8.863,17.812-8.863,17.812,6.731-6.911,12.619-.434,12.619-.434l.033-.033A7.816,7.816,0,0,1,259.255,30.421Z" transform="translate(-81.467 -3.933)" fill="#ff8000"/>
    <path id="Path_102684" data-name="Path 102684" d="M245.289,40a4.465,4.465,0,0,0,3.756,6.878,3.758,3.758,0,0,0,.615-.053l.3-.06h.234a3.254,3.254,0,0,0,.354-.14h-.04l.087-.04.147-.067h.033l.207-.127h.053l.2-.134h0l.194-.154h0l.047-.04.18-.167,6.216-6.216S252.019,33.093,245.289,40Z" transform="translate(-81.109 -12.219)" fill="#ff0024"/>
    <path id="Path_102685" data-name="Path 102685" d="M298.508,11.763h0a3.877,3.877,0,0,0-3.382,1.965l-3.2,5.648a2.079,2.079,0,0,1-3.616,0l-3.181-5.641a3.883,3.883,0,0,0-3.382-2.005h-.174a3.89,3.89,0,0,0-3.342,5.908l7.145,11.717a3.923,3.923,0,0,1,.568,2.005v3.516a3.883,3.883,0,0,0,3.883,3.883h.448a3.89,3.89,0,0,0,3.89-3.883V31.293a3.864,3.864,0,0,1,.568-2.005l7.085-11.583a3.89,3.89,0,0,0-3.309-5.942Z" transform="translate(-92.081 -3.89)" fill="#ff8000"/>
  </g>
</svg>
